<svg width="82" height="24" viewBox="0 0 82 24" fill="none" xmlns="http://www.w3.org/2000/svg">
<path d="M34.8423 16.7585C34.8423 17.9517 34.4077 18.8687 33.5386 19.5095C32.6695 20.1429 31.4248 20.4596 29.8044 20.4596C28.1767 20.4596 26.8693 20.2129 25.8824 19.7194V17.4766C27.3186 18.1395 28.6554 18.471 29.8928 18.471C31.4911 18.471 32.2902 17.9885 32.2902 17.0237C32.2902 16.7143 32.2018 16.4565 32.0251 16.2503C31.8483 16.0441 31.5574 15.8305 31.1523 15.6095C30.7472 15.3886 30.1837 15.1381 29.4619 14.8583C28.0552 14.3132 27.1013 13.7682 26.6005 13.2232C26.107 12.6781 25.8603 11.9711 25.8603 11.102C25.8603 10.0561 26.2801 9.24589 27.1198 8.6714C27.9668 8.08954 29.1158 7.79861 30.5667 7.79861C32.003 7.79861 33.3619 8.08954 34.6434 8.6714L33.8038 10.6269C32.4854 10.0819 31.3769 9.80934 30.4783 9.80934C29.1084 9.80934 28.4234 10.1997 28.4234 10.9804C28.4234 11.3634 28.6002 11.6875 28.9537 11.9526C29.3146 12.2178 30.0953 12.5824 31.2959 13.0464C32.3049 13.4368 33.0378 13.794 33.4944 14.1181C33.9511 14.4421 34.2899 14.8178 34.5109 15.2449C34.7318 15.6648 34.8423 16.1693 34.8423 16.7585Z" fill="white"/>
<path d="M42.2113 18.3605C42.8447 18.3605 43.4781 18.261 44.1116 18.0622V20.0177C43.8243 20.1429 43.4524 20.246 42.9957 20.327C42.5464 20.4154 42.0787 20.4596 41.5926 20.4596C39.1326 20.4596 37.9026 19.1633 37.9026 16.5707V9.98611H36.2343V8.83712L38.0241 7.88699L38.908 5.30176H40.5099V8.01956H43.99V9.98611H40.5099V16.5265C40.5099 17.1526 40.6646 17.6166 40.9739 17.9186C41.2906 18.2132 41.7031 18.3605 42.2113 18.3605Z" fill="white"/>
<path d="M57.4023 14.107C57.4023 16.103 56.8904 17.6608 55.8666 18.7803C54.8428 19.8998 53.4176 20.4596 51.591 20.4596C50.4494 20.4596 49.4404 20.2018 48.5639 19.6862C47.6874 19.1707 47.0135 18.4304 46.5421 17.4656C46.0707 16.5007 45.835 15.3812 45.835 14.107C45.835 12.1257 46.3432 10.579 47.3597 9.46685C48.3761 8.35469 49.8086 7.79861 51.6573 7.79861C53.425 7.79861 54.8244 8.36942 55.8556 9.51104C56.8867 10.6453 57.4023 12.1773 57.4023 14.107ZM48.5086 14.107C48.5086 16.9279 49.5508 18.3384 51.6352 18.3384C53.6975 18.3384 54.7287 16.9279 54.7287 14.107C54.7287 11.3155 53.6902 9.91982 51.6131 9.91982C50.5231 9.91982 49.7313 10.2807 49.2378 11.0025C48.7517 11.7243 48.5086 12.7591 48.5086 14.107Z" fill="white"/>
<path d="M66.5942 7.79861C67.1171 7.79861 67.548 7.83543 67.8868 7.90909L67.6327 10.3286C67.2644 10.2402 66.8814 10.196 66.4837 10.196C65.4452 10.196 64.6019 10.5348 63.9537 11.2124C63.3129 11.89 62.9926 12.7702 62.9926 13.8529V20.2386H60.3963V8.01956H62.4291L62.7716 10.1739H62.9042C63.3093 9.44475 63.8359 8.86658 64.484 8.43939C65.1395 8.0122 65.8429 7.79861 66.5942 7.79861Z" fill="white"/>
<path d="M72.6706 13.7866L74.14 11.9526L77.83 8.01956H80.824L75.9076 13.2674L81.1333 20.2386H78.0841L74.1621 14.8804L72.7369 16.0514V20.2386H70.1627V3.04797H72.7369V11.4334L72.6043 13.7866H72.6706Z" fill="white"/>
<path d="M16.3819 23.3168C16.1261 23.3166 15.8737 23.2585 15.6435 23.1466C15.4131 23.0348 15.2108 22.8721 15.0516 22.6707C14.5591 22.1357 10.7521 18.3741 8.41927 16.0807C8.25783 15.9242 8.12876 15.7371 8.03951 15.5301C7.95026 15.3232 7.90259 15.1005 7.89924 14.875C7.8959 14.6494 7.93694 14.4254 8.02 14.2159C8.10308 14.0063 8.22654 13.8154 8.38327 13.6541C8.54 13.4928 8.72691 13.3642 8.93323 13.2759C9.13956 13.1875 9.36122 13.1411 9.58545 13.1393C9.80969 13.1375 10.0321 13.1803 10.2398 13.2653C10.4475 13.3504 10.6364 13.4759 10.7957 13.6347C10.8123 13.6511 12.4924 15.303 14.16 16.9532L14.6825 17.4704V9.43773C14.6825 6.31392 12.1768 3.77248 9.09677 3.77248C6.01673 3.77248 3.51108 6.31392 3.51108 9.43773V21.6066C3.51108 22.0601 3.33196 22.4951 3.01316 22.8158C2.69435 23.1365 2.26194 23.3166 1.81107 23.3166C1.36021 23.3166 0.927812 23.1365 0.609 22.8158C0.29019 22.4951 0.111084 22.0601 0.111084 21.6066V9.43773C0.111084 4.42796 4.14203 0.352264 9.09677 0.352264C14.0515 0.352264 18.0825 4.42796 18.0825 9.43773V21.6066C18.0823 22.0601 17.9031 22.4951 17.5842 22.8159C17.2653 23.1366 16.8328 23.3167 16.3819 23.3168ZM14.8364 22.3171L14.8371 22.3187L14.8364 22.3171Z" fill="white"/>
<path d="M9.09589 11.0833C10.1689 11.0833 11.0387 10.2084 11.0387 9.12894C11.0387 8.04953 10.1689 7.1745 9.09589 7.1745C8.02287 7.1745 7.15302 8.04953 7.15302 9.12894C7.15302 10.2084 8.02287 11.0833 9.09589 11.0833Z" fill="#5F75EE"/>
</svg>
