<svg width="24" height="24" viewBox="0 0 24 24" fill="none" xmlns="http://www.w3.org/2000/svg">
<path d="M16.3819 23.3168C16.1261 23.3166 15.8737 23.2585 15.6435 23.1466C15.4131 23.0348 15.2108 22.8721 15.0516 22.6707C14.5591 22.1357 10.7521 18.3741 8.41927 16.0807C8.25783 15.9242 8.12876 15.7371 8.03951 15.5301C7.95026 15.3232 7.90259 15.1005 7.89924 14.875C7.8959 14.6494 7.93694 14.4254 8.02 14.2159C8.10308 14.0063 8.22654 13.8154 8.38327 13.6541C8.54 13.4928 8.72691 13.3642 8.93323 13.2759C9.13956 13.1875 9.36122 13.1411 9.58545 13.1393C9.80969 13.1375 10.0321 13.1803 10.2398 13.2653C10.4475 13.3504 10.6364 13.4759 10.7957 13.6347C10.8123 13.6511 12.4924 15.303 14.16 16.9532L14.6825 17.4704V9.43773C14.6825 6.31392 12.1768 3.77248 9.09677 3.77248C6.01673 3.77248 3.51108 6.31392 3.51108 9.43773V21.6066C3.51108 22.0601 3.33196 22.4951 3.01316 22.8158C2.69435 23.1365 2.26194 23.3166 1.81107 23.3166C1.36021 23.3166 0.927812 23.1365 0.609 22.8158C0.29019 22.4951 0.111084 22.0601 0.111084 21.6066V9.43773C0.111084 4.42796 4.14203 0.352264 9.09677 0.352264C14.0515 0.352264 18.0825 4.42796 18.0825 9.43773V21.6066C18.0823 22.0601 17.9031 22.4951 17.5842 22.8159C17.2653 23.1366 16.8328 23.3167 16.3819 23.3168ZM14.8364 22.3171L14.8371 22.3187L14.8364 22.3171Z" fill="white"/>
<path d="M9.09589 11.0833C10.1689 11.0833 11.0387 10.2084 11.0387 9.12894C11.0387 8.04953 10.1689 7.1745 9.09589 7.1745C8.02287 7.1745 7.15302 8.04953 7.15302 9.12894C7.15302 10.2084 8.02287 11.0833 9.09589 11.0833Z" fill="#5F75EE"/>
</svg>
