<svg width="17" height="16" viewBox="0 0 17 16" fill="none" xmlns="http://www.w3.org/2000/svg">
<path d="M2.12442 6.09496C2.57214 4.37809 3.94009 3.0646 5.65786 2.70217L5.9861 2.63291C7.53427 2.30626 9.13237 2.30626 10.6805 2.63291L11.0088 2.70217C12.7266 3.0646 14.0945 4.3781 14.5422 6.09496C14.9057 7.48864 14.9057 8.95388 14.5422 10.3476C14.0945 12.0644 12.7266 13.3779 11.0088 13.7403L10.6805 13.8096C9.13237 14.1363 7.53427 14.1363 5.9861 13.8096L5.65786 13.7403C3.94009 13.3779 2.57214 12.0644 2.12442 10.3476C1.76098 8.95388 1.76098 7.48864 2.12442 6.09496Z" stroke="#1B1D21" stroke-width="1.45833"/>
<path d="M4.44443 8.22125H5.74072L7.03702 10.1657L9.62961 6.27681L10.9259 8.22125H12.2222" stroke="#1B1D21" stroke-width="0.972222" stroke-linecap="round" stroke-linejoin="round"/>
</svg>
