<svg width="17" height="16" viewBox="0 0 17 16" fill="none" xmlns="http://www.w3.org/2000/svg">
<path d="M2.59238 6.17878C3.02836 4.423 4.42056 3.06546 6.18647 2.67416L6.48065 2.60897C7.81076 2.31424 9.18924 2.31424 10.5194 2.60897L10.8135 2.67416C12.5794 3.06546 13.9716 4.423 14.4076 6.17878C14.7407 7.52006 14.7407 8.92246 14.4076 10.2637C13.9716 12.0195 12.5794 13.3771 10.8135 13.7684L10.5193 13.8335C9.18924 14.1283 7.81076 14.1283 6.48065 13.8335L6.18647 13.7684C4.42056 13.3771 3.02836 12.0195 2.59238 10.2637C2.25933 8.92246 2.25933 7.52006 2.59238 6.17878Z" stroke="#1B1D21" stroke-width="1.45833"/>
<path fill-rule="evenodd" clip-rule="evenodd" d="M8.50015 4.98051C8.74797 4.98051 8.94886 5.16977 8.94886 5.40322V5.74905H8.99856C9.83305 5.74905 10.4444 6.43246 10.4444 7.19649C10.4444 7.42994 10.2435 7.6192 9.99571 7.6192C9.74789 7.6192 9.547 7.42994 9.547 7.19649C9.547 6.82862 9.2655 6.59446 8.99856 6.59446H8.94886V7.92521L9.55471 8.13275C10.1053 8.32134 10.4444 8.83424 10.4444 9.37744C10.4444 10.0689 9.89032 10.6934 9.12649 10.6934H8.94886V11.0393C8.94886 11.2727 8.74797 11.462 8.50015 11.462C8.25233 11.462 8.05143 11.2727 8.05143 11.0393V10.6934H8.00141C7.16693 10.6934 6.55554 10.01 6.55554 9.24597C6.55554 9.01252 6.75644 8.82327 7.00426 8.82327C7.25208 8.82327 7.45298 9.01252 7.45298 9.24597C7.45298 9.61384 7.73447 9.84801 8.00141 9.84801H8.05143V8.51736L7.44527 8.30972C6.89472 8.12112 6.55554 7.60822 6.55554 7.06503C6.55554 6.3736 7.10965 5.74905 7.87348 5.74905H8.05143V5.40322C8.05143 5.16977 8.25233 4.98051 8.50015 4.98051ZM8.05143 6.59446H7.87348C7.6772 6.59446 7.45298 6.76976 7.45298 7.06503C7.45298 7.29081 7.59262 7.46062 7.75196 7.5152L8.05143 7.61779V6.59446ZM8.94886 8.82478V9.84801H9.12649C9.32277 9.84801 9.547 9.6727 9.547 9.37744C9.547 9.15165 9.40735 8.98184 9.24801 8.92726L8.94886 8.82478Z" fill="#1B1D21"/>
</svg>
