<svg width="16" height="16" viewBox="0 0 16 16" fill="none" xmlns="http://www.w3.org/2000/svg">
<path fill-rule="evenodd" clip-rule="evenodd" d="M14.2296 9.51387C12.5048 9.51387 12.5048 6.84711 14.2296 6.84711C14.2296 3.75729 14.2296 2.65448 8.14021 2.65448C2.05086 2.65448 2.05086 3.75729 2.05086 6.84711C3.77558 6.84711 3.77558 9.51387 2.05086 9.51387C2.05086 12.6043 2.05086 13.7071 8.14021 13.7071C14.2296 13.7071 14.2296 12.6043 14.2296 9.51387Z" stroke="#1B1D21" stroke-width="1.45833" stroke-linecap="round" stroke-linejoin="round"/>
<path fill-rule="evenodd" clip-rule="evenodd" d="M8.14022 6.38809C7.69754 6.38809 7.65541 7.09423 7.39226 7.34414C7.12846 7.59344 6.30985 7.30853 6.19578 7.75125C6.08235 8.19458 6.8193 8.34502 6.91069 8.72511C7.00143 9.1052 6.55161 9.63941 6.93596 9.9059C7.32096 10.1712 7.73513 9.57002 8.14022 9.57002C8.54532 9.57002 8.95948 10.1712 9.34448 9.9059C9.72948 9.63941 9.27902 9.1052 9.36976 8.72511C9.46115 8.34502 10.1981 8.19458 10.0847 7.75125C9.97059 7.30853 9.15198 7.59344 8.88819 7.34414C8.62504 7.09423 8.58291 6.38809 8.14022 6.38809Z" stroke="#1B1D21" stroke-width="0.972222" stroke-linecap="round" stroke-linejoin="round"/>
</svg>
